<svg width="56" height="56" viewBox="0 0 56 56" fill="none" xmlns="http://www.w3.org/2000/svg">
<path fill-rule="evenodd" clip-rule="evenodd" d="M14.9148 28.6651C15.8362 27.7642 17.3135 27.7808 18.2145 28.7022C19.1154 29.6236 19.0988 31.1009 18.1774 32.0018L12.7246 37.3335L49.0007 37.3335C50.2893 37.3335 51.334 38.3782 51.334 39.6668C51.334 40.9555 50.2893 42.0002 49.0007 42.0002L12.7246 42.0002L18.1774 47.3318C19.0988 48.2327 19.1154 49.71 18.2145 50.6314C17.3135 51.5528 15.8362 51.5694 14.9148 50.6685L5.36937 41.3352C4.9204 40.8962 4.66731 40.2948 4.66731 39.6668C4.66731 39.0389 4.9204 38.4375 5.36937 37.9985L14.9148 28.6651ZM41.0865 5.33181C40.1651 4.43089 38.6878 4.44748 37.7868 5.36888C36.8859 6.29029 36.9025 7.76758 37.8239 8.66851L43.2767 14.0002L7.00065 14.0002C5.71199 14.0002 4.66731 15.0448 4.66731 16.3335C4.66731 17.6222 5.71199 18.6668 7.00065 18.6668L43.2767 18.6668L37.8239 23.9985C36.9025 24.8994 36.8859 26.3767 37.7868 27.2981C38.6878 28.2195 40.1651 28.2361 41.0865 27.3352L50.6319 18.0018C51.0809 17.5628 51.334 16.9614 51.334 16.3335C51.334 15.7056 51.0809 15.1041 50.6319 14.6651L41.0865 5.33181Z" fill="#134AD4"/>
</svg>
