<svg width="56" height="56" viewBox="0 0 56 56" fill="none" xmlns="http://www.w3.org/2000/svg">
<path fill-rule="evenodd" clip-rule="evenodd" d="M44.3327 49C48.1987 49 51.3327 45.866 51.3327 42V14C51.3327 10.134 48.1987 7 44.3327 7H27.9993H18.666L11.666 7.00001C7.80001 7.00002 4.66602 10.134 4.66602 14V19.8333V28V42C4.66602 45.866 7.80002 49 11.666 49L44.3327 49ZM44.3327 11.6667C45.6213 11.6667 46.666 12.7113 46.666 14V42C46.666 43.2887 45.6213 44.3333 44.3327 44.3333H11.666C10.3773 44.3333 9.33268 43.2887 9.33268 42L9.33268 28L9.33268 19.8333L9.33268 14C9.33268 12.7114 10.3773 11.6667 11.666 11.6667L18.666 11.6667L27.9993 11.6667L44.3327 11.6667ZM14.5827 14C12.9719 14 11.666 15.3058 11.666 16.9167C11.666 18.5275 12.9719 19.8333 14.5827 19.8333C16.1935 19.8333 17.4994 18.5275 17.4994 16.9167C17.4994 15.3058 16.1935 14 14.5827 14ZM20.9994 16.9167C20.9994 15.3058 22.3052 14 23.916 14C25.5268 14 26.8327 15.3058 26.8327 16.9167C26.8327 18.5275 25.5268 19.8333 23.916 19.8333C22.3052 19.8333 20.9994 18.5275 20.9994 16.9167ZM34.624 26.9357C35.3249 25.8544 35.0165 24.4095 33.9351 23.7086C32.8537 23.0077 31.4089 23.3162 30.708 24.3976L26.5372 30.8326L25.2409 28.9905C24.4993 27.9366 23.0437 27.6835 21.9899 28.4251C20.936 29.1667 20.6829 30.6223 21.4245 31.6761L24.7084 36.3428C25.1545 36.9767 25.8862 37.3477 26.6611 37.3329C27.4361 37.3181 28.1531 36.9195 28.5747 36.2691L34.624 26.9357Z" fill="#134AD4"/>
</svg>
