<svg width="24" height="24" viewBox="0 0 24 24" fill="none" xmlns="http://www.w3.org/2000/svg">
<path fill-rule="evenodd" clip-rule="evenodd" d="M8 10C6.89543 10 6 9.10457 6 8C6 6.89543 6.89543 6 8 6C9.10457 6 10 6.89543 10 8C10 9.10457 9.10457 10 8 10ZM10.7998 10.8568C11.5405 10.1308 12 9.11907 12 8C12 5.79086 10.2091 4 8 4C5.79086 4 4 5.79086 4 8C4 9.11907 4.45955 10.1308 5.20022 10.8568C3.87259 11.7557 3 13.2759 3 15V19C3 19.5523 3.44772 20 4 20C4.55228 20 5 19.5523 5 19V15C5 13.3431 6.34315 12 8 12C9.65685 12 11 13.3431 11 15V19C11 19.5523 11.4477 20 12 20C12.5523 20 13 19.5523 13 19V15C13 13.2759 12.1274 11.7557 10.7998 10.8568ZM14 7.5C14 6.94772 14.4477 6.5 15 6.5H17.5858L17.2929 6.20711C16.9024 5.81658 16.9024 5.18342 17.2929 4.79289C17.6834 4.40237 18.3166 4.40237 18.7071 4.79289L20.7071 6.79289C20.9931 7.07889 21.0787 7.50901 20.9239 7.88268C20.7691 8.25636 20.4045 8.5 20 8.5H15C14.4477 8.5 14 8.05228 14 7.5ZM20 10C20.5523 10 21 10.4477 21 11C21 11.5523 20.5523 12 20 12H17.4142L17.7071 12.2929C18.0976 12.6834 18.0976 13.3166 17.7071 13.7071C17.3166 14.0976 16.6834 14.0976 16.2929 13.7071L14.2929 11.7071C14.0069 11.4211 13.9213 10.991 14.0761 10.6173C14.2309 10.2436 14.5955 10 15 10H20Z" fill="black" fill-opacity="0.6"/>
</svg>
