<svg width="24" height="24" viewBox="0 0 24 24" fill="none" xmlns="http://www.w3.org/2000/svg">
<path fill-rule="evenodd" clip-rule="evenodd" d="M10.0731 20.7216C10.6817 21.0815 11.4352 21.0932 12.0548 20.7524L13.873 19.7524C14.5121 19.4009 14.9092 18.7294 14.9092 18L14.9092 11.7086L20.3863 6.44161C20.9746 5.87597 21.1601 5.00969 20.8552 4.25274C20.5503 3.49579 19.8161 3 19.0001 3L5.00007 3C4.18402 3 3.44981 3.49579 3.14491 4.25274C2.84001 5.00969 3.02558 5.87597 3.61379 6.44161L9.09098 11.7086L9.09098 19C9.09098 19.7071 9.46437 20.3617 10.0731 20.7216ZM12.9092 18L11.091 19L11.091 11.2829C11.091 11.1026 11.0423 10.9275 10.9524 10.775C10.9067 10.6974 10.8503 10.6257 10.7841 10.5621L5.00007 5L19.0001 5L13.216 10.5621C13.1499 10.6257 13.0935 10.6974 13.0477 10.775C12.9578 10.9275 12.9092 11.1026 12.9092 11.2829L12.9092 18Z" fill="white"/>
</svg>
