<svg width="24" height="24" viewBox="0 0 24 24" fill="none" xmlns="http://www.w3.org/2000/svg">
<path fill-rule="evenodd" clip-rule="evenodd" d="M16.0951 2.59727C16.8915 1.80091 18.1826 1.80091 18.979 2.59727L21.4027 5.02101C22.1991 5.81737 22.1991 7.10853 21.4027 7.90489L8.95609 20.3515C8.76436 20.5433 8.53679 20.6944 8.28705 20.7966L8.27491 20.8088L8.26976 20.8036C8.21567 20.8252 8.16057 20.8445 8.10459 20.8614L4.62969 21.9126C3.91004 22.1303 3.12897 21.9343 2.59732 21.4027C2.06567 20.871 1.8697 20.09 2.0874 19.3703L3.13855 15.8954C3.23581 15.5739 3.41097 15.2814 3.64847 15.0439L16.0951 2.59727ZM18.5189 7.90489L8.38687 18.0369L5.96313 15.6131L16.0951 5.48114L17.537 4.03921L18.5189 5.02101L18.979 5.48114L19.9608 6.46295L18.5189 7.90489ZM4.74864 17.6157L4.82601 17.3599L6.6401 19.174L6.38431 19.2514L4.03926 19.9607L4.74864 17.6157ZM13.0434 9.86086C12.7447 10.1595 12.7447 10.6437 13.0434 10.9423C13.342 11.2409 13.8262 11.2409 14.1248 10.9423L17.6934 7.3737C17.9921 7.07506 17.9921 6.59088 17.6934 6.29225C17.3948 5.99361 16.9106 5.99361 16.612 6.29225L13.0434 9.86086Z" fill="black" fill-opacity="0.6"/>
</svg>
