<svg width="56" height="56" viewBox="0 0 56 56" fill="none" xmlns="http://www.w3.org/2000/svg">
<path fill-rule="evenodd" clip-rule="evenodd" d="M48.9994 7H6.99935C5.71069 7 4.66602 8.04467 4.66602 9.33334C4.66602 10.622 5.71069 11.6667 6.99935 11.6667L48.9994 11.6667C50.288 11.6667 51.3327 10.622 51.3327 9.33333C51.3327 8.04467 50.288 7 48.9994 7ZM44.3327 18.6667C44.3327 17.378 43.288 16.3333 41.9994 16.3333L13.9993 16.3333C12.7107 16.3333 11.666 17.378 11.666 18.6667C11.666 19.9553 12.7107 21 13.9993 21L41.9994 21C43.288 21 44.3327 19.9553 44.3327 18.6667ZM6.99935 25.6667L48.9994 25.6667C50.288 25.6667 51.3327 26.7113 51.3327 28C51.3327 29.2887 50.288 30.3333 48.9994 30.3333L6.99935 30.3333C5.71069 30.3333 4.66602 29.2887 4.66602 28C4.66602 26.7113 5.71069 25.6667 6.99935 25.6667ZM44.3327 37.3333C44.3327 36.0447 43.288 35 41.9994 35L13.9993 35C12.7107 35 11.666 36.0447 11.666 37.3333C11.666 38.622 12.7107 39.6667 13.9993 39.6667L41.9994 39.6667C43.288 39.6667 44.3327 38.622 44.3327 37.3333ZM48.9994 44.3333C50.288 44.3333 51.3327 45.378 51.3327 46.6667C51.3327 47.9553 50.288 49 48.9994 49L6.99935 49C5.71069 49 4.66602 47.9553 4.66602 46.6667C4.66602 45.378 5.71069 44.3333 6.99935 44.3333L48.9994 44.3333Z" fill="#134AD4"/>
</svg>
