<svg width="20" height="20" viewBox="0 0 20 20" fill="none" xmlns="http://www.w3.org/2000/svg">
<path fill-rule="evenodd" clip-rule="evenodd" d="M20 17L20 3C20 1.34315 18.6569 -5.87108e-08 17 -1.31134e-07L3 -7.43094e-07C1.34315 -8.15517e-07 -5.87108e-08 1.34314 -1.31134e-07 3L-7.43094e-07 17C-8.15517e-07 18.6569 1.34314 20 3 20L17 20C18.6569 20 20 18.6569 20 17ZM17 2C17.5523 2 18 2.44772 18 3L18 17C18 17.5523 17.5523 18 17 18L3 18C2.44771 18 2 17.5523 2 17L2 3C2 2.44771 2.44772 2 3 2L17 2ZM16 10C16 9.17157 15.3284 8.5 14.5 8.5L5.5 8.5C4.67157 8.5 4 9.17157 4 10C4 10.8284 4.67157 11.5 5.5 11.5L14.5 11.5C15.3284 11.5 16 10.8284 16 10ZM10.5 13.5C11.3284 13.5 12 14.1716 12 15C12 15.8284 11.3284 16.5 10.5 16.5L5.5 16.5C4.67157 16.5 4 15.8284 4 15C4 14.1716 4.67157 13.5 5.5 13.5L10.5 13.5ZM10 5.5C10 4.67157 9.32843 4 8.5 4L5.5 4C4.67157 4 4 4.67157 4 5.5C4 6.32843 4.67157 7 5.5 7L8.5 7C9.32843 7 10 6.32843 10 5.5Z" fill="black" fill-opacity="0.6"/>
</svg>
