<svg width="56" height="56" viewBox="0 0 56 56" fill="none" xmlns="http://www.w3.org/2000/svg">
<path fill-rule="evenodd" clip-rule="evenodd" d="M27.9994 25.6667C24.1334 25.6667 20.9993 28.8007 20.9993 32.6667V38.3333V46.6667C20.9993 47.9553 19.9547 49 18.666 49C17.3774 49 16.3327 47.9553 16.3327 46.6667V38.3333V32.6667L16.333 32.5839C15.9518 32.6385 15.5622 32.6667 15.166 32.6667C14.9092 32.6667 14.6552 32.6548 14.4044 32.6316C14.2729 32.6547 14.1375 32.6667 13.9993 32.6667H12.9993C10.9743 32.6667 9.33268 34.3083 9.33268 36.3333V42C9.33268 43.2887 8.28801 44.3333 6.99935 44.3333C5.71068 44.3333 4.66602 43.2887 4.66602 42V36.3333C4.66602 33.3676 6.21526 30.7637 8.54859 29.2868C7.57396 27.9418 6.99935 26.288 6.99935 24.5C6.99935 19.9897 10.6557 16.3333 15.166 16.3333C16.4319 16.3333 17.6306 16.6214 18.7 17.1355C18.6775 16.8711 18.666 16.6036 18.666 16.3333C18.666 11.1787 22.8447 7 27.9994 7C33.154 7 37.3327 11.1787 37.3327 16.3333C37.3327 16.6036 37.3212 16.8711 37.2987 17.1355C38.3681 16.6214 39.5668 16.3333 40.8327 16.3333C45.343 16.3333 48.9994 19.9897 48.9994 24.5C48.9994 26.288 48.4247 27.9418 47.4501 29.2868C49.7834 30.7637 51.3327 33.3676 51.3327 36.3333V42C51.3327 43.2887 50.288 44.3333 48.9994 44.3333C47.7107 44.3333 46.666 43.2887 46.666 42V36.3333C46.666 34.3083 45.0244 32.6667 42.9994 32.6667H41.9994C41.8612 32.6667 41.7258 32.6547 41.5943 32.6316C41.3435 32.6548 41.0895 32.6667 40.8327 32.6667C40.4365 32.6667 40.0469 32.6385 39.6657 32.5839L39.666 32.6667V38.3333V46.6667C39.666 47.9553 38.6213 49 37.3327 49C36.044 49 34.9994 47.9553 34.9994 46.6667V38.3333V32.6667C34.9994 28.8007 31.8653 25.6667 27.9994 25.6667ZM27.9994 21C25.422 21 23.3327 18.9107 23.3327 16.3333C23.3327 13.756 25.422 11.6667 27.9994 11.6667C30.5767 11.6667 32.666 13.756 32.666 16.3333C32.666 18.9107 30.5767 21 27.9994 21ZM15.166 21C13.233 21 11.666 22.567 11.666 24.5C11.666 26.433 13.233 28 15.166 28C17.099 28 18.666 26.433 18.666 24.5C18.666 22.567 17.099 21 15.166 21ZM40.8327 21C38.8997 21 37.3327 22.567 37.3327 24.5C37.3327 26.433 38.8997 28 40.8327 28C42.7657 28 44.3327 26.433 44.3327 24.5C44.3327 22.567 42.7657 21 40.8327 21Z" fill="#134AD4"/>
</svg>
