<svg width="56" height="56" viewBox="0 0 56 56" fill="none" xmlns="http://www.w3.org/2000/svg">
<path fill-rule="evenodd" clip-rule="evenodd" d="M11.6667 7C9.08934 7 7 9.08934 7 11.6667V14V21C7 23.5773 9.08934 25.6667 11.6667 25.6667H21C23.5773 25.6667 25.6667 23.5773 25.6667 21V11.6667C25.6667 9.08934 23.5773 7 21 7H11.6667ZM11.6667 11.6667H21V21H11.6667V14V11.6667ZM35 7C32.4227 7 30.3333 9.08934 30.3333 11.6667V14V21C30.3333 23.5773 32.4227 25.6667 35 25.6667H44.3333C46.9107 25.6667 49 23.5773 49 21V11.6667C49 9.08934 46.9107 7 44.3333 7H35ZM35 11.6667H44.3333V21H35V14V11.6667ZM30.3333 35C30.3333 32.4227 32.4227 30.3333 35 30.3333H44.3333C46.9107 30.3333 49 32.4227 49 35V44.3333C49 46.9107 46.9107 49 44.3333 49H35C32.4227 49 30.3333 46.9107 30.3333 44.3333V37.3333V35ZM44.3333 35H35V37.3333V44.3333H44.3333V35ZM11.6667 30.3333C9.08934 30.3333 7 32.4227 7 35V37.3333V44.3333C7 46.9107 9.08934 49 11.6667 49H21C23.5773 49 25.6667 46.9107 25.6667 44.3333V35C25.6667 32.4227 23.5773 30.3333 21 30.3333H11.6667ZM11.6667 35H21V44.3333H11.6667V37.3333V35Z" fill="#134AD4"/>
</svg>
