<svg width="58" height="58" viewBox="0 0 58 58" fill="none" xmlns="http://www.w3.org/2000/svg">
<path fill-rule="evenodd" clip-rule="evenodd" d="M28.9994 21.9883C26.4177 21.9883 24.3249 19.8954 24.3249 17.3138C24.3249 14.7322 26.4177 12.6393 28.9994 12.6393C31.581 12.6393 33.6738 14.7322 33.6738 17.3138C33.6738 19.8954 31.581 21.9883 28.9994 21.9883ZM36.6705 22.6591C38.3815 23.4691 39.7123 24.9513 40.3217 26.7648L44.7764 23.2011C47.8371 20.7525 52.371 22.9316 52.371 26.8512V45.1723C52.371 49.0919 47.8371 51.271 44.7764 48.8225L40.3217 45.2587C39.3886 48.0352 36.7648 50.0352 33.6738 50.0352H12.6387C8.7662 50.0352 5.62695 46.8959 5.62695 43.0234V29C5.62695 26.8569 6.58844 24.9383 8.10358 23.6522C6.56616 21.9861 5.62695 19.7596 5.62695 17.3138C5.62695 12.1505 9.81262 7.96484 14.9759 7.96484C17.7682 7.96484 20.2746 9.18899 21.9876 11.1299C23.7007 9.18899 26.2071 7.96484 28.9994 7.96484C34.1626 7.96484 38.3483 12.1505 38.3483 17.3138C38.3483 19.3014 37.728 21.1442 36.6705 22.6591ZM19.6504 17.3138C19.6504 19.8954 17.5576 21.9883 14.9759 21.9883C12.3943 21.9883 10.3014 19.8954 10.3014 17.3138C10.3014 14.7322 12.3943 12.6393 14.9759 12.6393C17.5576 12.6393 19.6504 14.7322 19.6504 17.3138ZM12.6387 26.6628H14.9759H28.9994H33.6738C34.9647 26.6628 36.0111 27.7092 36.0111 29V43.0234C36.0111 44.3143 34.9647 45.3607 33.6738 45.3607H12.6387C11.3479 45.3607 10.3014 44.3143 10.3014 43.0234V29C10.3014 27.7092 11.3478 26.6628 12.6387 26.6628ZM40.6856 32.46V39.5635L47.6966 45.1723V26.8512L40.6856 32.46Z" fill="#134AD4"/>
</svg>
