<svg width="56" height="56" viewBox="0 0 56 56" fill="none" xmlns="http://www.w3.org/2000/svg">
<path fill-rule="evenodd" clip-rule="evenodd" d="M13.9993 4.6665C16.5767 4.6665 18.666 6.75584 18.666 9.33317V46.6665C18.666 49.2438 16.5767 51.3332 13.9993 51.3332H9.33268C6.75535 51.3332 4.66602 49.2438 4.66602 46.6665V9.33317C4.66602 6.75584 6.75535 4.6665 9.33268 4.6665H13.9993ZM13.9993 9.33317L9.33268 9.33317V46.6665H13.9993V9.33317ZM34.9993 23.3332C34.9993 20.7558 32.91 18.6665 30.3327 18.6665H25.666C23.0887 18.6665 20.9993 20.7558 20.9993 23.3332V46.6665C20.9993 49.2438 23.0887 51.3332 25.666 51.3332H30.3327C32.91 51.3332 34.9993 49.2438 34.9993 46.6665V23.3332ZM25.666 23.3332H30.3327V46.6665H25.666V23.3332ZM51.3327 32.6665C51.3327 30.0892 49.2433 27.9998 46.666 27.9998H41.9993C39.422 27.9998 37.3327 30.0892 37.3327 32.6665V46.6665C37.3327 49.2438 39.422 51.3332 41.9993 51.3332H46.666C49.2433 51.3332 51.3327 49.2438 51.3327 46.6665V32.6665ZM41.9993 32.6665H46.666V46.6665H41.9993V32.6665Z" fill="#134AD4"/>
</svg>
