<svg width="18" height="20" viewBox="0 0 18 20" fill="none" xmlns="http://www.w3.org/2000/svg">
<path fill-rule="evenodd" clip-rule="evenodd" d="M13.2597 3L13 3C13 1.34315 11.6569 0 10 0H8C6.34314 0 5 1.34315 5 3L4.34328 3L4 3L3.99883 3L1 3C0.447715 3 0 3.44772 0 4C0 4.55229 0.447715 5 1 5H1.99999C2 5.051 2.00195 5.10216 2.00589 5.15339L2.93487 17.2301C3.0551 18.7931 4.35842 20 5.92603 20H12.074C13.6416 20 14.9449 18.7931 15.0651 17.2301L15.9941 5.15339C15.998 5.10216 16 5.051 16 5H17C17.5523 5 18 4.55228 18 4C18 3.44771 17.5523 3 17 3L14.0018 3L14 3L13.2597 3ZM12.4334 5L11.5369 18H12.074C12.5965 18 13.0309 17.5977 13.071 17.0767L13.8462 7L14 5H12.4334ZM9.53211 18L10.4287 5L7.57134 5L8.46789 18H9.53211ZM4 5L5.56659 5L6.46314 18H5.92603C5.4035 18 4.96905 17.5977 4.92898 17.0767L4.15385 7L4 5ZM7 3H8H9L10 3H11C11 2.44772 10.5523 2 10 2L8 2C7.44772 2 7 2.44772 7 3Z" fill="white"/>
</svg>
