<svg width="56" height="56" viewBox="0 0 56 56" fill="none" xmlns="http://www.w3.org/2000/svg">
<path fill-rule="evenodd" clip-rule="evenodd" d="M17.9094 12.2798C18.8594 13.1506 18.9235 14.6266 18.0528 15.5765L11.6361 22.5765C11.1812 23.0728 10.5341 23.3484 9.861 23.3325C9.18795 23.3166 8.55456 23.0108 8.12356 22.4936L5.20689 18.9936C4.38191 18.0036 4.51566 16.5323 5.50564 15.7073C6.49562 14.8824 7.96694 15.0161 8.79192 16.0061L9.99975 17.4555L14.6127 12.4232C15.4835 11.4732 16.9595 11.409 17.9094 12.2798ZM23.3327 18.6665C23.3327 17.3779 24.3774 16.3332 25.6661 16.3332H48.9994C50.2881 16.3332 51.3327 17.3779 51.3327 18.6665C51.3327 19.9552 50.2881 20.9999 48.9994 20.9999H25.6661C24.3774 20.9999 23.3327 19.9552 23.3327 18.6665ZM25.6661 34.9999C24.3774 34.9999 23.3327 36.0445 23.3327 37.3332C23.3327 38.6219 24.3774 39.6665 25.6661 39.6665H48.9994C50.2881 39.6665 51.3327 38.6219 51.3327 37.3332C51.3327 36.0445 50.2881 34.9999 48.9994 34.9999H25.6661ZM17.9827 31.0166C18.8939 31.9278 18.8939 33.4052 17.9827 34.3164L14.9659 37.3332L17.9827 40.3499C18.8939 41.2612 18.8939 42.7385 17.9827 43.6498C17.0714 44.561 15.594 44.561 14.6828 43.6498L11.6661 40.633L8.64932 43.6498C7.7381 44.561 6.26072 44.561 5.34949 43.6498C4.43827 42.7385 4.43827 41.2612 5.34949 40.3499L8.36624 37.3332L5.34949 34.3164C4.43827 33.4052 4.43827 31.9278 5.34949 31.0166C6.26072 30.1054 7.7381 30.1054 8.64932 31.0166L11.6661 34.0334L14.6828 31.0166C15.594 30.1054 17.0714 30.1054 17.9827 31.0166Z" fill="#134AD4"/>
</svg>
