<svg width="18" height="16" viewBox="0 0 18 16" fill="none" xmlns="http://www.w3.org/2000/svg">
<path fill-rule="evenodd" clip-rule="evenodd" d="M5 6C3.89543 6 3 5.10457 3 4C3 2.89543 3.89543 2 5 2C6.10457 2 7 2.89543 7 4C7 5.10457 6.10457 6 5 6ZM7.79978 6.85679C8.54045 6.1308 9 5.11907 9 4C9 1.79086 7.20914 0 5 0C2.79086 0 1 1.79086 1 4C1 5.11907 1.45955 6.1308 2.20022 6.85679C0.872588 7.75569 0 9.27594 0 11V15C0 15.5523 0.447715 16 1 16C1.55228 16 2 15.5523 2 15V11C2 9.34315 3.34315 8 5 8C6.65685 8 8 9.34315 8 11V15C8 15.5523 8.44772 16 9 16C9.55229 16 10 15.5523 10 15V11C10 9.27594 9.12741 7.75569 7.79978 6.85679ZM11 3.5C11 2.94772 11.4477 2.5 12 2.5H14.5858L14.2929 2.20711C13.9024 1.81658 13.9024 1.18342 14.2929 0.792893C14.6834 0.402369 15.3166 0.402369 15.7071 0.792893L17.7071 2.79289C17.9931 3.07889 18.0787 3.50901 17.9239 3.88268C17.7691 4.25636 17.4045 4.5 17 4.5H12C11.4477 4.5 11 4.05228 11 3.5ZM17 6C17.5523 6 18 6.44771 18 7C18 7.55228 17.5523 8 17 8H14.4142L14.7071 8.29289C15.0976 8.68342 15.0976 9.31658 14.7071 9.70711C14.3166 10.0976 13.6834 10.0976 13.2929 9.70711L11.2929 7.70711C11.0069 7.42111 10.9213 6.99099 11.0761 6.61732C11.2309 6.24364 11.5955 6 12 6H17Z" fill="white"/>
</svg>
